<mxfile host="app.diagrams.net" modified="2024-01-17T14:09:37.884Z" agent="Mozilla/5.0 (Macintosh; Intel Mac OS X 10_15_7) AppleWebKit/537.36 (KHTML, like Gecko) Chrome/120.0.0.0 Safari/537.36" etag="x1e_FET5pBcXbR3tamuf" version="22.1.18" type="device">
  <diagram name="Страница — 1" id="6mL_5zop7gPBwyD4C8qO">
    <mxGraphModel dx="1152" dy="593" grid="1" gridSize="10" guides="1" tooltips="1" connect="1" arrows="1" fold="1" page="1" pageScale="1" pageWidth="827" pageHeight="1169" math="0" shadow="0">
      <root>
        <mxCell id="0" />
        <mxCell id="1" parent="0" />
        <mxCell id="e3SuWxeabaYCX3oiVk7v-19" style="edgeStyle=orthogonalEdgeStyle;rounded=0;orthogonalLoop=1;jettySize=auto;html=1;exitX=0.5;exitY=1;exitDx=0;exitDy=0;exitPerimeter=0;entryX=0.5;entryY=0;entryDx=0;entryDy=0;endArrow=none;endFill=0;" edge="1" parent="1" source="e3SuWxeabaYCX3oiVk7v-1" target="e3SuWxeabaYCX3oiVk7v-2">
          <mxGeometry relative="1" as="geometry" />
        </mxCell>
        <mxCell id="e3SuWxeabaYCX3oiVk7v-1" value="&lt;font style=&quot;font-size: 9px;&quot;&gt;Начало&lt;/font&gt;" style="strokeWidth=1;html=1;shape=mxgraph.flowchart.terminator;whiteSpace=wrap;" vertex="1" parent="1">
          <mxGeometry x="160" y="40" width="80" height="20" as="geometry" />
        </mxCell>
        <mxCell id="e3SuWxeabaYCX3oiVk7v-20" style="edgeStyle=orthogonalEdgeStyle;rounded=0;orthogonalLoop=1;jettySize=auto;html=1;exitX=0.5;exitY=1;exitDx=0;exitDy=0;entryX=0.5;entryY=0;entryDx=0;entryDy=0;endArrow=none;endFill=0;" edge="1" parent="1" source="e3SuWxeabaYCX3oiVk7v-2" target="e3SuWxeabaYCX3oiVk7v-3">
          <mxGeometry relative="1" as="geometry" />
        </mxCell>
        <mxCell id="e3SuWxeabaYCX3oiVk7v-2" value="&lt;font style=&quot;font-size: 9px;&quot;&gt;a = 5&lt;/font&gt;" style="rounded=0;whiteSpace=wrap;html=1;" vertex="1" parent="1">
          <mxGeometry x="160" y="80" width="80" height="40" as="geometry" />
        </mxCell>
        <mxCell id="e3SuWxeabaYCX3oiVk7v-21" style="edgeStyle=orthogonalEdgeStyle;rounded=0;orthogonalLoop=1;jettySize=auto;html=1;exitX=0.5;exitY=1;exitDx=0;exitDy=0;entryX=0.5;entryY=0;entryDx=0;entryDy=0;endArrow=none;endFill=0;" edge="1" parent="1" source="e3SuWxeabaYCX3oiVk7v-3" target="e3SuWxeabaYCX3oiVk7v-4">
          <mxGeometry relative="1" as="geometry" />
        </mxCell>
        <mxCell id="e3SuWxeabaYCX3oiVk7v-3" value="&lt;font style=&quot;font-size: 9px;&quot;&gt;b = 3&lt;/font&gt;" style="rounded=0;whiteSpace=wrap;html=1;" vertex="1" parent="1">
          <mxGeometry x="160" y="140" width="80" height="40" as="geometry" />
        </mxCell>
        <mxCell id="e3SuWxeabaYCX3oiVk7v-22" style="edgeStyle=orthogonalEdgeStyle;rounded=0;orthogonalLoop=1;jettySize=auto;html=1;exitX=0.5;exitY=1;exitDx=0;exitDy=0;" edge="1" parent="1" source="e3SuWxeabaYCX3oiVk7v-4">
          <mxGeometry relative="1" as="geometry">
            <mxPoint x="199.969696969697" y="240.27272727272737" as="targetPoint" />
          </mxGeometry>
        </mxCell>
        <mxCell id="e3SuWxeabaYCX3oiVk7v-23" style="edgeStyle=orthogonalEdgeStyle;rounded=0;orthogonalLoop=1;jettySize=auto;html=1;exitX=0.5;exitY=1;exitDx=0;exitDy=0;entryX=0.5;entryY=0;entryDx=0;entryDy=0;endArrow=none;endFill=0;" edge="1" parent="1" source="e3SuWxeabaYCX3oiVk7v-4" target="e3SuWxeabaYCX3oiVk7v-5">
          <mxGeometry relative="1" as="geometry" />
        </mxCell>
        <mxCell id="e3SuWxeabaYCX3oiVk7v-4" value="&lt;font style=&quot;font-size: 9px;&quot;&gt;ввод&amp;nbsp; c&lt;/font&gt;" style="shape=parallelogram;perimeter=parallelogramPerimeter;whiteSpace=wrap;html=1;fixedSize=1;rounded=0;" vertex="1" parent="1">
          <mxGeometry x="160" y="200" width="80" height="40" as="geometry" />
        </mxCell>
        <mxCell id="e3SuWxeabaYCX3oiVk7v-24" style="edgeStyle=orthogonalEdgeStyle;rounded=0;orthogonalLoop=1;jettySize=auto;html=1;exitX=0;exitY=0.5;exitDx=0;exitDy=0;entryX=0.5;entryY=0;entryDx=0;entryDy=0;endArrow=none;endFill=0;" edge="1" parent="1" source="e3SuWxeabaYCX3oiVk7v-5" target="e3SuWxeabaYCX3oiVk7v-6">
          <mxGeometry relative="1" as="geometry" />
        </mxCell>
        <mxCell id="e3SuWxeabaYCX3oiVk7v-25" style="edgeStyle=orthogonalEdgeStyle;rounded=0;orthogonalLoop=1;jettySize=auto;html=1;exitX=1;exitY=0.5;exitDx=0;exitDy=0;entryX=0.5;entryY=0;entryDx=0;entryDy=0;endArrow=none;endFill=0;" edge="1" parent="1" source="e3SuWxeabaYCX3oiVk7v-5" target="e3SuWxeabaYCX3oiVk7v-7">
          <mxGeometry relative="1" as="geometry" />
        </mxCell>
        <mxCell id="e3SuWxeabaYCX3oiVk7v-26" style="edgeStyle=orthogonalEdgeStyle;rounded=0;orthogonalLoop=1;jettySize=auto;html=1;exitX=0.5;exitY=1;exitDx=0;exitDy=0;" edge="1" parent="1" source="e3SuWxeabaYCX3oiVk7v-5">
          <mxGeometry relative="1" as="geometry">
            <mxPoint x="199.969696969697" y="300.27272727272737" as="targetPoint" />
          </mxGeometry>
        </mxCell>
        <mxCell id="e3SuWxeabaYCX3oiVk7v-5" value="&lt;font style=&quot;font-size: 9px;&quot;&gt;c &amp;gt; b&lt;/font&gt;" style="rhombus;whiteSpace=wrap;html=1;" vertex="1" parent="1">
          <mxGeometry x="160" y="260" width="80" height="40" as="geometry" />
        </mxCell>
        <mxCell id="e3SuWxeabaYCX3oiVk7v-27" style="edgeStyle=orthogonalEdgeStyle;rounded=0;orthogonalLoop=1;jettySize=auto;html=1;exitX=0.5;exitY=1;exitDx=0;exitDy=0;entryX=0.5;entryY=1;entryDx=0;entryDy=0;endArrow=none;endFill=0;" edge="1" parent="1" source="e3SuWxeabaYCX3oiVk7v-6" target="e3SuWxeabaYCX3oiVk7v-6">
          <mxGeometry relative="1" as="geometry" />
        </mxCell>
        <mxCell id="e3SuWxeabaYCX3oiVk7v-29" style="edgeStyle=orthogonalEdgeStyle;rounded=0;orthogonalLoop=1;jettySize=auto;html=1;exitX=0.5;exitY=1;exitDx=0;exitDy=0;entryX=0.5;entryY=1;entryDx=0;entryDy=0;endArrow=none;endFill=0;" edge="1" parent="1" source="e3SuWxeabaYCX3oiVk7v-6" target="e3SuWxeabaYCX3oiVk7v-6">
          <mxGeometry relative="1" as="geometry" />
        </mxCell>
        <mxCell id="e3SuWxeabaYCX3oiVk7v-33" style="edgeStyle=orthogonalEdgeStyle;rounded=0;orthogonalLoop=1;jettySize=auto;html=1;exitX=0.5;exitY=1;exitDx=0;exitDy=0;entryX=0.5;entryY=0;entryDx=0;entryDy=0;endArrow=none;endFill=0;" edge="1" parent="1" source="e3SuWxeabaYCX3oiVk7v-6" target="e3SuWxeabaYCX3oiVk7v-8">
          <mxGeometry relative="1" as="geometry">
            <Array as="points">
              <mxPoint x="120" y="380" />
              <mxPoint x="200" y="380" />
            </Array>
          </mxGeometry>
        </mxCell>
        <mxCell id="e3SuWxeabaYCX3oiVk7v-6" value="&lt;font style=&quot;font-size: 9px;&quot;&gt;c = 1&lt;/font&gt;" style="rounded=0;whiteSpace=wrap;html=1;" vertex="1" parent="1">
          <mxGeometry x="80" y="320" width="80" height="40" as="geometry" />
        </mxCell>
        <mxCell id="e3SuWxeabaYCX3oiVk7v-28" style="edgeStyle=orthogonalEdgeStyle;rounded=0;orthogonalLoop=1;jettySize=auto;html=1;exitX=0.5;exitY=1;exitDx=0;exitDy=0;entryX=0.5;entryY=1;entryDx=0;entryDy=0;endArrow=none;endFill=0;" edge="1" parent="1" source="e3SuWxeabaYCX3oiVk7v-7" target="e3SuWxeabaYCX3oiVk7v-7">
          <mxGeometry relative="1" as="geometry" />
        </mxCell>
        <mxCell id="e3SuWxeabaYCX3oiVk7v-34" style="edgeStyle=orthogonalEdgeStyle;rounded=0;orthogonalLoop=1;jettySize=auto;html=1;exitX=0.5;exitY=1;exitDx=0;exitDy=0;endArrow=none;endFill=0;" edge="1" parent="1" source="e3SuWxeabaYCX3oiVk7v-7">
          <mxGeometry relative="1" as="geometry">
            <mxPoint x="200" y="390" as="targetPoint" />
            <Array as="points">
              <mxPoint x="280" y="380" />
              <mxPoint x="200" y="380" />
            </Array>
          </mxGeometry>
        </mxCell>
        <mxCell id="e3SuWxeabaYCX3oiVk7v-7" value="&lt;font style=&quot;font-size: 9px;&quot;&gt;c = 2&lt;/font&gt;" style="rounded=0;whiteSpace=wrap;html=1;" vertex="1" parent="1">
          <mxGeometry x="240" y="320" width="80" height="40" as="geometry" />
        </mxCell>
        <mxCell id="e3SuWxeabaYCX3oiVk7v-35" style="edgeStyle=orthogonalEdgeStyle;rounded=0;orthogonalLoop=1;jettySize=auto;html=1;exitX=0.5;exitY=1;exitDx=0;exitDy=0;entryX=0.5;entryY=0;entryDx=0;entryDy=0;endArrow=none;endFill=0;" edge="1" parent="1" source="e3SuWxeabaYCX3oiVk7v-8" target="e3SuWxeabaYCX3oiVk7v-9">
          <mxGeometry relative="1" as="geometry" />
        </mxCell>
        <mxCell id="e3SuWxeabaYCX3oiVk7v-8" value="&lt;font style=&quot;font-size: 9px;&quot;&gt;d = c + b&lt;/font&gt;" style="rounded=0;whiteSpace=wrap;html=1;" vertex="1" parent="1">
          <mxGeometry x="160" y="390" width="80" height="40" as="geometry" />
        </mxCell>
        <mxCell id="e3SuWxeabaYCX3oiVk7v-9" value="&lt;font style=&quot;font-size: 9px;&quot;&gt;A1&lt;/font&gt;" style="ellipse;whiteSpace=wrap;html=1;aspect=fixed;" vertex="1" parent="1">
          <mxGeometry x="180" y="450" width="40" height="40" as="geometry" />
        </mxCell>
        <mxCell id="e3SuWxeabaYCX3oiVk7v-10" value="&lt;font style=&quot;font-size: 9px;&quot;&gt;A1&lt;/font&gt;" style="ellipse;whiteSpace=wrap;html=1;aspect=fixed;" vertex="1" parent="1">
          <mxGeometry x="580" y="40" width="40" height="40" as="geometry" />
        </mxCell>
        <mxCell id="e3SuWxeabaYCX3oiVk7v-39" style="edgeStyle=orthogonalEdgeStyle;rounded=0;orthogonalLoop=1;jettySize=auto;html=1;exitX=0.5;exitY=1;exitDx=0;exitDy=0;exitPerimeter=0;entryX=0.5;entryY=0;entryDx=0;entryDy=0;endArrow=none;endFill=0;" edge="1" parent="1" source="e3SuWxeabaYCX3oiVk7v-11" target="e3SuWxeabaYCX3oiVk7v-12">
          <mxGeometry relative="1" as="geometry" />
        </mxCell>
        <mxCell id="e3SuWxeabaYCX3oiVk7v-11" value="&lt;font style=&quot;font-size: 9px;&quot;&gt;Цикл А&lt;br&gt;i от 0 до 10&lt;/font&gt;" style="strokeWidth=1;html=1;shape=mxgraph.flowchart.loop_limit;whiteSpace=wrap;" vertex="1" parent="1">
          <mxGeometry x="560" y="100" width="80" height="40" as="geometry" />
        </mxCell>
        <mxCell id="e3SuWxeabaYCX3oiVk7v-40" style="edgeStyle=orthogonalEdgeStyle;rounded=0;orthogonalLoop=1;jettySize=auto;html=1;exitX=0.5;exitY=1;exitDx=0;exitDy=0;entryX=0.5;entryY=0;entryDx=0;entryDy=0;endArrow=none;endFill=0;" edge="1" parent="1" source="e3SuWxeabaYCX3oiVk7v-12" target="e3SuWxeabaYCX3oiVk7v-13">
          <mxGeometry relative="1" as="geometry" />
        </mxCell>
        <mxCell id="e3SuWxeabaYCX3oiVk7v-12" value="&lt;font style=&quot;font-size: 9px;&quot;&gt;d = d + 1&lt;/font&gt;" style="rounded=0;whiteSpace=wrap;html=1;" vertex="1" parent="1">
          <mxGeometry x="560" y="160" width="80" height="40" as="geometry" />
        </mxCell>
        <mxCell id="e3SuWxeabaYCX3oiVk7v-13" value="&lt;font style=&quot;font-size: 9px;&quot;&gt;вывод&amp;nbsp; d&lt;/font&gt;" style="shape=parallelogram;perimeter=parallelogramPerimeter;whiteSpace=wrap;html=1;fixedSize=1;rounded=0;" vertex="1" parent="1">
          <mxGeometry x="560" y="220" width="80" height="40" as="geometry" />
        </mxCell>
        <mxCell id="e3SuWxeabaYCX3oiVk7v-42" style="edgeStyle=orthogonalEdgeStyle;rounded=0;orthogonalLoop=1;jettySize=auto;html=1;exitX=0.5;exitY=0;exitDx=0;exitDy=0;exitPerimeter=0;entryX=0.5;entryY=0;entryDx=0;entryDy=0;endArrow=none;endFill=0;" edge="1" parent="1" source="e3SuWxeabaYCX3oiVk7v-14" target="e3SuWxeabaYCX3oiVk7v-15">
          <mxGeometry relative="1" as="geometry" />
        </mxCell>
        <mxCell id="e3SuWxeabaYCX3oiVk7v-14" value="&lt;font style=&quot;font-size: 9px;&quot;&gt;Конец цикла А&lt;/font&gt;" style="strokeWidth=1;html=1;shape=mxgraph.flowchart.loop_limit;whiteSpace=wrap;direction=west;" vertex="1" parent="1">
          <mxGeometry x="560" y="280" width="80" height="40" as="geometry" />
        </mxCell>
        <mxCell id="e3SuWxeabaYCX3oiVk7v-43" style="edgeStyle=orthogonalEdgeStyle;rounded=0;orthogonalLoop=1;jettySize=auto;html=1;exitX=0.5;exitY=1;exitDx=0;exitDy=0;entryX=0.5;entryY=0;entryDx=0;entryDy=0;endArrow=none;endFill=0;" edge="1" parent="1" source="e3SuWxeabaYCX3oiVk7v-15" target="e3SuWxeabaYCX3oiVk7v-16">
          <mxGeometry relative="1" as="geometry" />
        </mxCell>
        <mxCell id="e3SuWxeabaYCX3oiVk7v-47" style="edgeStyle=orthogonalEdgeStyle;rounded=0;orthogonalLoop=1;jettySize=auto;html=1;exitX=1;exitY=0.5;exitDx=0;exitDy=0;entryX=0.5;entryY=0;entryDx=0;entryDy=0;endArrow=none;endFill=0;" edge="1" parent="1" source="e3SuWxeabaYCX3oiVk7v-15" target="e3SuWxeabaYCX3oiVk7v-17">
          <mxGeometry relative="1" as="geometry">
            <Array as="points">
              <mxPoint x="660" y="360" />
              <mxPoint x="660" y="460" />
              <mxPoint x="600" y="460" />
            </Array>
          </mxGeometry>
        </mxCell>
        <mxCell id="e3SuWxeabaYCX3oiVk7v-15" value="&lt;font style=&quot;font-size: 9px;&quot;&gt;d &amp;gt; 0&lt;/font&gt;" style="rhombus;whiteSpace=wrap;html=1;" vertex="1" parent="1">
          <mxGeometry x="560" y="340" width="80" height="40" as="geometry" />
        </mxCell>
        <mxCell id="e3SuWxeabaYCX3oiVk7v-44" style="edgeStyle=orthogonalEdgeStyle;rounded=0;orthogonalLoop=1;jettySize=auto;html=1;exitX=0.5;exitY=1;exitDx=0;exitDy=0;endArrow=classic;endFill=1;" edge="1" parent="1" source="e3SuWxeabaYCX3oiVk7v-16">
          <mxGeometry relative="1" as="geometry">
            <mxPoint x="600.2222222222222" y="330" as="targetPoint" />
            <Array as="points">
              <mxPoint x="600" y="450" />
              <mxPoint x="540" y="450" />
              <mxPoint x="540" y="330" />
            </Array>
          </mxGeometry>
        </mxCell>
        <mxCell id="e3SuWxeabaYCX3oiVk7v-16" value="&lt;font style=&quot;font-size: 9px;&quot;&gt;d = d - 1&lt;/font&gt;" style="rounded=0;whiteSpace=wrap;html=1;" vertex="1" parent="1">
          <mxGeometry x="560" y="400" width="80" height="40" as="geometry" />
        </mxCell>
        <mxCell id="e3SuWxeabaYCX3oiVk7v-17" value="" style="shape=parallelogram;perimeter=parallelogramPerimeter;whiteSpace=wrap;html=1;fixedSize=1;rounded=0;" vertex="1" parent="1">
          <mxGeometry x="560" y="470" width="80" height="40" as="geometry" />
        </mxCell>
        <mxCell id="e3SuWxeabaYCX3oiVk7v-18" value="&lt;font style=&quot;font-size: 9px;&quot;&gt;Конец&lt;/font&gt;" style="strokeWidth=1;html=1;shape=mxgraph.flowchart.terminator;whiteSpace=wrap;" vertex="1" parent="1">
          <mxGeometry x="560" y="530" width="80" height="20" as="geometry" />
        </mxCell>
        <mxCell id="e3SuWxeabaYCX3oiVk7v-36" value="&lt;font style=&quot;font-size: 9px;&quot;&gt;Да&lt;/font&gt;" style="text;html=1;strokeColor=none;fillColor=none;align=center;verticalAlign=middle;whiteSpace=wrap;rounded=0;" vertex="1" parent="1">
          <mxGeometry x="100" y="240" width="60" height="30" as="geometry" />
        </mxCell>
        <mxCell id="e3SuWxeabaYCX3oiVk7v-37" value="&lt;font style=&quot;font-size: 9px;&quot;&gt;Нет&lt;/font&gt;" style="text;html=1;strokeColor=none;fillColor=none;align=center;verticalAlign=middle;whiteSpace=wrap;rounded=0;" vertex="1" parent="1">
          <mxGeometry x="240" y="240" width="60" height="30" as="geometry" />
        </mxCell>
        <mxCell id="e3SuWxeabaYCX3oiVk7v-38" style="edgeStyle=orthogonalEdgeStyle;rounded=0;orthogonalLoop=1;jettySize=auto;html=1;exitX=0.5;exitY=1;exitDx=0;exitDy=0;entryX=0.5;entryY=0;entryDx=0;entryDy=0;entryPerimeter=0;endArrow=none;endFill=0;" edge="1" parent="1" source="e3SuWxeabaYCX3oiVk7v-10" target="e3SuWxeabaYCX3oiVk7v-11">
          <mxGeometry relative="1" as="geometry" />
        </mxCell>
        <mxCell id="e3SuWxeabaYCX3oiVk7v-41" style="edgeStyle=orthogonalEdgeStyle;rounded=0;orthogonalLoop=1;jettySize=auto;html=1;exitX=0.5;exitY=1;exitDx=0;exitDy=0;entryX=0.5;entryY=1;entryDx=0;entryDy=0;entryPerimeter=0;endArrow=none;endFill=0;" edge="1" parent="1" source="e3SuWxeabaYCX3oiVk7v-13" target="e3SuWxeabaYCX3oiVk7v-14">
          <mxGeometry relative="1" as="geometry" />
        </mxCell>
        <mxCell id="e3SuWxeabaYCX3oiVk7v-48" style="edgeStyle=orthogonalEdgeStyle;rounded=0;orthogonalLoop=1;jettySize=auto;html=1;exitX=0.5;exitY=1;exitDx=0;exitDy=0;entryX=0.5;entryY=0;entryDx=0;entryDy=0;entryPerimeter=0;endArrow=none;endFill=0;" edge="1" parent="1" source="e3SuWxeabaYCX3oiVk7v-17" target="e3SuWxeabaYCX3oiVk7v-18">
          <mxGeometry relative="1" as="geometry" />
        </mxCell>
        <mxCell id="e3SuWxeabaYCX3oiVk7v-49" value="&lt;font style=&quot;font-size: 9px;&quot;&gt;Да&lt;/font&gt;" style="text;html=1;strokeColor=none;fillColor=none;align=center;verticalAlign=middle;whiteSpace=wrap;rounded=0;" vertex="1" parent="1">
          <mxGeometry x="550" y="370" width="60" height="30" as="geometry" />
        </mxCell>
        <mxCell id="e3SuWxeabaYCX3oiVk7v-50" value="&lt;font style=&quot;font-size: 9px;&quot;&gt;Нет&lt;/font&gt;" style="text;html=1;strokeColor=none;fillColor=none;align=center;verticalAlign=middle;whiteSpace=wrap;rounded=0;" vertex="1" parent="1">
          <mxGeometry x="600" y="320" width="60" height="30" as="geometry" />
        </mxCell>
        <mxCell id="e3SuWxeabaYCX3oiVk7v-51" value="" style="strokeWidth=1;html=1;shape=mxgraph.flowchart.annotation_2;align=left;labelPosition=right;pointerEvents=1;" vertex="1" parent="1">
          <mxGeometry x="670" y="470" width="20" height="40" as="geometry" />
        </mxCell>
        <mxCell id="e3SuWxeabaYCX3oiVk7v-52" value="&lt;font style=&quot;font-size: 9px;&quot;&gt;Вывод &quot;программа завершила свою работу с результатом&quot; + d&lt;/font&gt;" style="text;html=1;strokeColor=none;fillColor=none;align=center;verticalAlign=middle;whiteSpace=wrap;rounded=0;" vertex="1" parent="1">
          <mxGeometry x="680" y="470" width="140" height="40" as="geometry" />
        </mxCell>
      </root>
    </mxGraphModel>
  </diagram>
</mxfile>
